<svg xmlns="http://www.w3.org/2000/svg" width="24" height="24" viewBox="0 0 24 24">
  <g id="world-wide-web" transform="translate(0)">
    <g id="Group_1640" data-name="Group 1640" transform="translate(0 0)">
      <path id="Path_2957" data-name="Path 2957" d="M20.485,3.515A12,12,0,1,0,3.515,20.485,12,12,0,1,0,20.485,3.515ZM4.51,4.51A10.566,10.566,0,0,1,8.154,2.125a9.893,9.893,0,0,0-1,1.545,13.824,13.824,0,0,0-.925,2.205,21.678,21.678,0,0,1-2.456-.544A10.8,10.8,0,0,1,4.51,4.51ZM2.917,6.543a21.743,21.743,0,0,0,2.928.694A20.431,20.431,0,0,0,5.326,11.3H1.431A10.5,10.5,0,0,1,2.917,6.543ZM2.84,17.327A10.5,10.5,0,0,1,1.431,12.7h3.9a20.411,20.411,0,0,0,.509,3.946A22.815,22.815,0,0,0,2.84,17.327ZM4.51,19.49a10.778,10.778,0,0,1-.836-.94,22.761,22.761,0,0,1,2.541-.536,13.848,13.848,0,0,0,.934,2.234,9.731,9.731,0,0,0,1.1,1.664A10.564,10.564,0,0,1,4.51,19.49ZM11.3,22.412a5.247,5.247,0,0,1-2.9-2.824,12.241,12.241,0,0,1-.757-1.762c1.159-.128,2.393-.2,3.66-.221Zm0-6.215a39.663,39.663,0,0,0-4.059.258,18.882,18.882,0,0,1-.5-3.751H11.3V16.2Zm0-4.9H6.734a18.91,18.91,0,0,1,.508-3.853,39.084,39.084,0,0,0,4.054.284Zm0-4.977c-1.272-.026-2.5-.109-3.654-.244a12.239,12.239,0,0,1,.751-1.744,5.247,5.247,0,0,1,2.9-2.824V6.319Zm9.831.3A10.5,10.5,0,0,1,22.569,11.3H18.674a20.457,20.457,0,0,0-.509-4.015A22.991,22.991,0,0,0,21.127,6.618ZM19.49,4.51a10.787,10.787,0,0,1,.793.886,22.977,22.977,0,0,1-2.494.521A13.857,13.857,0,0,0,16.85,3.67a9.893,9.893,0,0,0-1-1.545A10.566,10.566,0,0,1,19.49,4.51ZM12.7,12.7h4.559a18.857,18.857,0,0,1-.507,3.779A39.121,39.121,0,0,0,12.7,16.2Zm0-1.408V7.732a39.706,39.706,0,0,0,4.062-.256,18.929,18.929,0,0,1,.5,3.821H12.7Zm0-9.79h0a5.247,5.247,0,0,1,2.9,2.824A12.257,12.257,0,0,1,16.368,6.1c-1.161.127-2.4.2-3.665.219Zm0,20.905v-4.8c1.271.025,2.5.107,3.652.242a12.231,12.231,0,0,1-.748,1.737A5.247,5.247,0,0,1,12.7,22.412ZM19.49,19.49a10.562,10.562,0,0,1-3.742,2.422,9.731,9.731,0,0,0,1.1-1.664,13.819,13.819,0,0,0,.923-2.2,21.656,21.656,0,0,1,2.509.556A10.793,10.793,0,0,1,19.49,19.49Zm1.632-2.1a21.743,21.743,0,0,0-2.968-.7,20.4,20.4,0,0,0,.518-3.984h3.9A10.5,10.5,0,0,1,21.122,17.391Z" transform="translate(0 0)" fill="#9f4435"/>
    </g>
  </g>
</svg>
