<svg xmlns="http://www.w3.org/2000/svg" width="30" height="17.478" viewBox="0 0 30 17.478">
  <g id="Group_1561" data-name="Group 1561" transform="translate(0 0)">
    <path id="Path_2475" data-name="Path 2475" d="M12.722,10.323h0Z" transform="translate(4.834 2.495)" fill="#9f4435"/>
    <path id="Path_2476" data-name="Path 2476" d="M5.791,3.232H9.1a1.074,1.074,0,0,1,1.074.96c.655-.145,1.488-.38,2.44-.649,2.7-.759,6.067-1.713,8.291-1.394,3.16.451,5.759,2.943,8.818,6.151a5.654,5.654,0,1,1-5.837,7.994,14.274,14.274,0,0,0-1.629-.128,13.835,13.835,0,0,0-1.6.159,25.269,25.269,0,0,1-3.324.261A14.973,14.973,0,0,1,15.2,16.44a13.924,13.924,0,0,1-3.654-1.355c-.478-.226-.968-.459-1.4-.635A1.074,1.074,0,0,1,9.1,15.3H5.791a1.072,1.072,0,0,1-1.071-1.071V4.3A1.073,1.073,0,0,1,5.791,3.232Zm23.239,15.2a4.527,4.527,0,0,0-.008-9.055v.006A4.585,4.585,0,0,0,25.131,11.6a9.049,9.049,0,0,1,.909.216A2.726,2.726,0,0,1,28.076,14.6a1.79,1.79,0,0,1-1.43,1.777,6.4,6.4,0,0,1-1.38.051A4.529,4.529,0,0,0,29.03,18.433ZM10.183,13.1a19.193,19.193,0,0,1,1.925.839A13.119,13.119,0,0,0,15.4,15.181a18.22,18.22,0,0,0,5.113-.12,14.5,14.5,0,0,1,1.76-.159,15.927,15.927,0,0,1,1.846.156L24.1,15.2h0l.02-.146a8.776,8.776,0,0,0,2.311.081c.269-.045.363-.4.375-.607a1.485,1.485,0,0,0-1.137-1.492c-.4-.121-.985-.226-1.674-.35-2.059-.373-4.62-.836-5.572-2.333a2.433,2.433,0,0,1-.26-2.01,1.849,1.849,0,0,1,1.147-1.32c1.288-.495,3.486.255,6.531,2.224a5.741,5.741,0,0,1,2.171-.9C25.2,5.468,23.089,3.739,20.728,3.4a23.4,23.4,0,0,0-7.77,1.362c-1.088.307-2.038.576-2.778.72V13.1Zm14.666-2.981h0c-2.384-1.5-4.271-2.214-5.081-1.911a.6.6,0,0,0-.369.462,1.215,1.215,0,0,0,.106,1c.635,1,2.9,1.432,4.468,1.716A5.6,5.6,0,0,1,24.849,10.117ZM5.857,14.176h3.2l0-9.817h-3.2Z" transform="translate(-4.721 -2.085)" fill="#9f4435"/>
  </g>
</svg>
