<svg xmlns="http://www.w3.org/2000/svg" width="16.432" height="24" viewBox="0 0 16.432 24">
  <g id="g2505" transform="translate(-8.909 681.196)">
    <g id="g2507" transform="translate(8.909 -681.196)">
      <g id="Group_1641" data-name="Group 1641" transform="translate(0 0)">
        <g id="g2515">
          <g id="path2517" transform="translate(219.999 642.665)" fill="none" stroke-linecap="round" stroke-linejoin="round">
            <path d="M-211.784-618.665c-2.988-4.481-8.216-10.556-8.216-15.784a8.225,8.225,0,0,1,8.216-8.216,8.225,8.225,0,0,1,8.216,8.216C-203.568-629.221-208.8-623.146-211.784-618.665Z" stroke="none"/>
            <path d="M -211.78369140625 -621.3012084960938 C -211.5553588867188 -621.623291015625 -211.3211364746094 -621.9512939453125 -211.0824432373047 -622.2855834960938 C -208.4028167724609 -626.0382080078125 -205.0679168701172 -630.7084350585938 -205.0679168701172 -634.44921875 C -205.0679168701172 -638.15234375 -208.0805969238281 -641.1650390625 -211.78369140625 -641.1650390625 C -215.4867706298828 -641.1650390625 -218.4994506835938 -638.15234375 -218.4994506835938 -634.44921875 C -218.4994506835938 -630.7084350585938 -215.1645660400391 -626.0382080078125 -212.4849548339844 -622.2855834960938 C -212.2462615966797 -621.9512939453125 -212.0120239257812 -621.623291015625 -211.78369140625 -621.3012084960938 M -211.78369140625 -618.6650390625 C -214.771240234375 -623.1463012695312 -219.9994506835938 -629.2210083007812 -219.9994506835938 -634.44921875 C -219.9994506835938 -638.9793701171875 -216.3138580322266 -642.6650390625 -211.78369140625 -642.6650390625 C -207.2535095214844 -642.6650390625 -203.5679168701172 -638.9793701171875 -203.5679168701172 -634.44921875 C -203.5679168701172 -629.2210083007812 -208.7961273193359 -623.1463012695312 -211.78369140625 -618.6650390625 Z" stroke="none" fill="#9f4435"/>
          </g>
        </g>
        <g id="g2519" transform="translate(4.486 4.484)">
          <g id="path2521" transform="translate(100 200)" fill="none" stroke-linecap="round" stroke-linejoin="round">
            <path d="M-96.27-192.54a3.734,3.734,0,0,1-3.73-3.73A3.734,3.734,0,0,1-96.27-200a3.734,3.734,0,0,1,3.73,3.73A3.734,3.734,0,0,1-96.27-192.54Z" stroke="none"/>
            <path d="M -96.27008056640625 -194.0401611328125 C -95.04063415527344 -194.0401611328125 -94.04039764404297 -195.0403900146484 -94.04039764404297 -196.2698364257812 C -94.04039764404297 -197.4992828369141 -95.04063415527344 -198.49951171875 -96.27008056640625 -198.49951171875 C -97.49952697753906 -198.49951171875 -98.49976348876953 -197.4992828369141 -98.49976348876953 -196.2698364257812 C -98.49976348876953 -195.0403900146484 -97.49952697753906 -194.0401611328125 -96.27008056640625 -194.0401611328125 M -96.27008056640625 -192.5401611328125 C -98.32652282714844 -192.5401611328125 -99.99976348876953 -194.2134094238281 -99.99976348876953 -196.2698364257812 C -99.99976348876953 -198.3262786865234 -98.32652282714844 -199.99951171875 -96.27008056640625 -199.99951171875 C -94.21363830566406 -199.99951171875 -92.54039764404297 -198.3262786865234 -92.54039764404297 -196.2698364257812 C -92.54039764404297 -194.2134094238281 -94.21363830566406 -192.5401611328125 -96.27008056640625 -192.5401611328125 Z" stroke="none" fill="#9f4435"/>
          </g>
        </g>
      </g>
    </g>
  </g>
</svg>
