<svg xmlns="http://www.w3.org/2000/svg" xmlns:xlink="http://www.w3.org/1999/xlink" width="30" height="30" viewBox="0 0 30 30">
  <defs>
    <clipPath id="clip-path">
      <path id="path375" d="M0-682.665H30v30H0Z" transform="translate(0 682.665)" stroke="#9f4435" stroke-width="1.5"/>
    </clipPath>
  </defs>
  <g id="g373" clip-path="url(#clip-path)">
    <g id="g379" transform="translate(7.793 15)">
      <path id="path381" d="M0-145.311,2.508-151.9a.151.151,0,0,1,.28,0l2.485,6.585" transform="translate(0 151.99)" fill="rgba(0,0,0,0)" stroke="#9f4435" stroke-linecap="round" stroke-linejoin="round" stroke-miterlimit="10" stroke-width="1.5"/>
    </g>
    <g id="g383" transform="translate(8.575 20.039)">
      <path id="path385" d="M0,0H3.722" fill="rgba(0,0,0,0)" stroke="#9f4435" stroke-linecap="round" stroke-linejoin="round" stroke-miterlimit="10" stroke-width="1.5"/>
    </g>
    <g id="g387" transform="translate(15.645 5.713)">
      <path id="path389" d="M0,0H7.852" fill="rgba(0,0,0,0)" stroke="#9f4435" stroke-linecap="round" stroke-linejoin="round" stroke-miterlimit="10" stroke-width="1.5"/>
    </g>
    <g id="g391" transform="translate(15.85 5.713)">
      <path id="path393" d="M-111.7,0V.567a5.865,5.865,0,0,1-5.134,5.819h0" transform="translate(116.836)" fill="rgba(0,0,0,0)" stroke="#9f4435" stroke-linecap="round" stroke-linejoin="round" stroke-miterlimit="10" stroke-width="1.5"/>
    </g>
    <g id="g395" transform="translate(18.157 5.713)">
      <path id="path397" d="M0,0V.567A5.865,5.865,0,0,0,5.134,6.387h0" fill="rgba(0,0,0,0)" stroke="#9f4435" stroke-linecap="round" stroke-linejoin="round" stroke-miterlimit="10" stroke-width="1.5"/>
    </g>
    <g id="g399" transform="translate(19.57 3.604)">
      <path id="path401" d="M0-45.891V-48" transform="translate(0 48)" fill="rgba(0,0,0,0)" stroke="#9f4435" stroke-linecap="round" stroke-linejoin="round" stroke-miterlimit="10" stroke-width="1.5"/>
    </g>
    <g id="g403" transform="translate(9.727 0.586)">
      <path id="path405" d="M-156.793,0h-4.685A2.522,2.522,0,0,0-164,2.522v9.488a2.522,2.522,0,0,0,2.522,2.522h10.252l4.392,3.75v-3.75h0a2.522,2.522,0,0,0,2.522-2.522V2.522A2.522,2.522,0,0,0-146.834,0h-4.685" transform="translate(164)" fill="rgba(0,0,0,0)" stroke="#9f4435" stroke-linecap="round" stroke-linejoin="round" stroke-miterlimit="10" stroke-width="1.5"/>
    </g>
    <g id="g407" transform="translate(0.586 11.133)">
      <path id="path409" d="M-428.311-86.682v8.025a2.522,2.522,0,0,1-2.522,2.522h-10.252l-4.392,3.75v-3.75h0A2.522,2.522,0,0,1-448-78.657v-9.488a2.522,2.522,0,0,1,2.522-2.522h6.619" transform="translate(447.999 90.666)" fill="rgba(0,0,0,0)" stroke="#9f4435" stroke-linecap="round" stroke-linejoin="round" stroke-miterlimit="10" stroke-width="1.5"/>
    </g>
    <g id="g411" transform="translate(19.57 0.586)">
      <path id="path413" d="M0,0H0" fill="rgba(0,0,0,0)" stroke="#9f4435" stroke-linecap="round" stroke-linejoin="round" stroke-miterlimit="10" stroke-width="1.5"/>
    </g>
  </g>
</svg>
