<svg xmlns="http://www.w3.org/2000/svg" width="23.999" height="24.034" viewBox="0 0 23.999 24.034">
  <g id="phone-call" transform="translate(-0.344 0)">
    <g id="Group_1639" data-name="Group 1639" transform="translate(0.344 0)">
      <path id="Path_2954" data-name="Path 2954" d="M19.322,40.9a2.364,2.364,0,0,0-1.715-.786,2.444,2.444,0,0,0-1.735.781l-1.6,1.6c-.132-.071-.264-.137-.391-.2-.183-.091-.355-.178-.5-.269a17.422,17.422,0,0,1-4.175-3.8,10.278,10.278,0,0,1-1.37-2.161c.416-.38.8-.776,1.177-1.157.142-.142.284-.289.426-.431a2.327,2.327,0,0,0,0-3.51L8.05,29.577c-.157-.157-.32-.32-.472-.482-.3-.315-.624-.639-.954-.944a2.4,2.4,0,0,0-1.7-.746,2.485,2.485,0,0,0-1.725.746l-.01.01L1.466,29.9a3.711,3.711,0,0,0-1.1,2.359,8.892,8.892,0,0,0,.649,3.764A21.841,21.841,0,0,0,4.9,42.5a23.871,23.871,0,0,0,7.949,6.224,12.385,12.385,0,0,0,4.464,1.319c.107.005.218.01.32.01a3.822,3.822,0,0,0,2.927-1.258c.005-.01.015-.015.02-.025a11.532,11.532,0,0,1,.888-.918c.218-.208.441-.426.659-.654a2.53,2.53,0,0,0,.766-1.755,2.438,2.438,0,0,0-.781-1.74Zm1.816,5.341c-.005,0-.005.005,0,0-.2.213-.4.406-.619.619a13.34,13.34,0,0,0-.979,1.015,2.445,2.445,0,0,1-1.907.807c-.076,0-.157,0-.233-.005a11,11,0,0,1-3.957-1.187A22.533,22.533,0,0,1,5.955,41.63,20.594,20.594,0,0,1,2.3,35.548a7.243,7.243,0,0,1-.568-3.175,2.329,2.329,0,0,1,.7-1.507l1.73-1.73a1.153,1.153,0,0,1,.771-.36,1.085,1.085,0,0,1,.741.355l.015.015c.309.289.6.588.913.908.157.162.32.325.482.492l1.385,1.385a.968.968,0,0,1,0,1.572c-.147.147-.289.294-.436.436-.426.436-.832.842-1.273,1.238-.01.01-.02.015-.025.025a1.035,1.035,0,0,0-.264,1.151l.015.046a11.118,11.118,0,0,0,1.638,2.673l.005.005a18.618,18.618,0,0,0,4.5,4.1,6.926,6.926,0,0,0,.624.34c.183.091.355.178.5.269.02.01.041.025.061.036a1.1,1.1,0,0,0,.5.127,1.085,1.085,0,0,0,.771-.35l1.735-1.735a1.148,1.148,0,0,1,.766-.38,1.033,1.033,0,0,1,.73.37l.01.01,2.795,2.795A1,1,0,0,1,21.138,46.246Z" transform="translate(-0.344 -26.016)" fill="#9f4435"/>
      <path id="Path_2955" data-name="Path 2955" d="M245.507,87.284a6.528,6.528,0,0,1,5.316,5.316.681.681,0,0,0,.675.568.9.9,0,0,0,.117-.01.685.685,0,0,0,.563-.791,7.894,7.894,0,0,0-6.432-6.432.688.688,0,0,0-.791.558A.677.677,0,0,0,245.507,87.284Z" transform="translate(-232.536 -81.567)" fill="#9f4435"/>
      <path id="Path_2956" data-name="Path 2956" d="M260.162,10.6A13,13,0,0,0,249.571.011a.684.684,0,1,0-.223,1.349,11.61,11.61,0,0,1,9.465,9.465.681.681,0,0,0,.675.568.906.906,0,0,0,.117-.01A.672.672,0,0,0,260.162,10.6Z" transform="translate(-236.174 0)" fill="#9f4435"/>
    </g>
  </g>
</svg>
